<?xml version="1.0" standalone="no"?>
<!DOCTYPE svg PUBLIC "-//W3C//DTD SVG 1.1//EN" "http://www.w3.org/Graphics/SVG/1.1/DTD/svg11.dtd" >
<svg xmlns="http://www.w3.org/2000/svg">
<metadata>Generated by IcoMoon</metadata>
<defs>
<font id="icons_v2" horiz-adv-x="1024">
<font-face units-per-em="1024" ascent="960" descent="-64" />
<missing-glyph horiz-adv-x="1024" />
<glyph unicode="&#x20;" horiz-adv-x="512" d="" />
<glyph unicode="&#xe900;" glyph-name="ico_star" d="M541.632 933.888l101.248-315.264c4.096-14.784 17.152-25.28 32.512-26.112h313.984c19.328-0.192 34.816-16.064 34.624-35.456-0.128-11.264-5.696-21.76-14.912-28.288l-254.784-191.104c-11.84-9.344-16.704-25.088-12.096-39.488l96.832-312.704c6.272-17.92-3.2-37.568-21.12-43.776-10.432-3.648-22.016-2.048-31.104 4.288l-254.784 191.104c-11.776 9.28-28.352 9.28-40.128 0l-254.784-191.104c-15.424-11.072-36.928-7.552-48 7.872-6.72 9.344-8.32 21.44-4.224 32.256l96.832 312.704c4.864 14.592 0 30.656-12.096 40.128l-254.72 191.104c-15.808 11.136-19.648 32.96-8.512 48.768 6.464 9.216 17.024 14.784 28.288 14.912h313.984c15.296 0.832 28.352 11.328 32.448 26.112l96.832 313.984c6.144 17.6 25.472 26.88 43.008 20.672 9.664-3.392 17.28-11.008 20.672-20.608z" />
<glyph unicode="&#xe901;" glyph-name="ico_arrow-right" d="M790.784 438.72c0.448 2.944 1.664 5.696 1.664 8.704 0 0.192 0.128 0.384 0.128 0.576 0 3.328-1.408 6.464-1.92 9.728-0.704 4.736-0.96 9.536-2.816 14.080-1.344 3.392-4.032 6.208-6.016 9.408-2.368 3.84-4.032 8-7.296 11.392l-433.088 448c-24.448 25.28-64.896 25.92-90.496 1.408-25.344-24.512-26.048-65.024-1.472-90.496l390.016-403.52-390.080-403.52c-12.032-12.416-17.984-28.416-17.984-44.416 0-16.768 6.528-33.472 19.52-46.080 12.48-11.968 28.544-17.984 44.544-17.984 16.768 0 33.408 6.528 46.016 19.52l433.088 448c3.264 3.392 4.928 7.488 7.296 11.328 1.856 3.008 4.416 5.696 5.76 8.896 1.92 4.8 2.368 9.92 3.136 14.976z" />
<glyph unicode="&#xe902;" glyph-name="ico_check" d="M363.52 60.352c-24 0-47.936 9.408-65.856 28.16l-272.448 285.12c-34.752 36.416-33.408 94.080 2.944 128.832 36.352 34.816 94.016 33.472 128.832-2.944l272.384-285.12c34.752-36.416 33.472-94.016-2.944-128.832-17.6-16.832-40.256-25.216-62.912-25.216zM365.312 61.248c-22.656 0-45.376 8.384-63.040 25.344-36.352 34.816-37.568 92.48-2.688 128.768l567.616 592.128c34.816 36.416 92.48 37.568 128.768 2.688 36.352-34.816 37.568-92.48 2.688-128.768l-567.616-592.128c-17.856-18.624-41.792-28.032-65.728-28.032z" />
<glyph unicode="&#xe903;" glyph-name="ico_close" d="M621.184 448l380.224 380.224c30.144 30.144 30.144 79.040 0 109.184s-79.040 30.144-109.184 0l-380.224-380.224-380.224 380.224c-30.144 30.144-79.040 30.144-109.184 0s-30.144-79.040 0-109.184l380.224-380.224-380.224-380.224c-30.144-30.144-30.144-79.040 0-109.184 15.040-15.104 34.816-22.592 54.592-22.592s39.488 7.552 54.592 22.592l380.224 380.224 380.224-380.224c15.104-15.104 34.816-22.592 54.592-22.592s39.488 7.552 54.592 22.592c30.144 30.144 30.144 79.040 0 109.184l-380.224 380.224z" />
<glyph unicode="&#xe904;" glyph-name="ico_compare" d="M501.12 51.968c2.432-5.376 2.432-11.52 0-16.896-1.664-5.824-5.504-10.816-10.752-13.824l-10.24-5.12-146.688-76.992c-9.344-5.952-21.696-3.2-27.584 6.144-0.64 0.96-1.152 2.048-1.6 3.136l-3.072 8.192c-2.432 5.376-2.432 11.52 0 16.896 1.152 4.864 4.096 9.024 8.192 11.776l81.024 42.048c-59.584 15.104-115.2 42.944-163.072 81.536-94.464 75.712-153.664 187.008-163.584 307.648-6.4 57.536-1.216 115.776 15.36 171.264 16.64 54.976 44.352 105.984 81.536 149.76 38.336 44.288 84.864 80.832 136.96 107.648 7.296 3.328 15.744 3.328 23.104 0 7.808-2.56 14.272-8.064 17.92-15.36 3.328-7.488 3.328-16.064 0-23.616-2.432-7.68-7.744-14.144-14.848-17.92-21.248-11.264-41.536-24.32-60.544-38.976-18.752-15.36-35.904-32.576-51.264-51.264-16.128-18.816-30.336-39.040-42.56-60.544-12.416-21.696-22.4-44.8-29.76-68.736-33.216-94.848-25.6-199.168 20.992-288.192 16.448-31.104 36.992-59.904 60.992-85.632 23.936-25.664 51.392-47.744 81.536-65.664 30.336-17.984 63.168-31.488 97.408-40h15.424l-58.944 92.288c-3.392 5.376-4.992 11.648-4.608 17.92 0 5.888 3.392 11.264 8.704 13.824l8.192 5.12c11.2 6.656 25.664 2.944 32.32-8.192l92.288-144.064 7.168-14.208zM917.504 629.824c51.136-101.056 59.456-218.368 23.104-325.632-34.56-111.168-112.64-203.648-216.384-256.384-4.48-2.624-9.664-4.096-14.848-4.096-11.712-0.704-22.656 6.080-27.2 16.896-3.328 7.68-3.328 16.384 0 24.128 2.432 7.68 7.744 14.144 14.848 17.92 88.96 46.208 155.904 125.888 186.112 221.504 32.256 95.232 23.552 199.616-24.128 288.192-7.552 13.312-15.36 26.176-23.616 38.464-8.384 12.288-17.472 24.064-27.2 35.392-10.048 11.264-20.864 21.888-32.32 31.808-10.944 10.048-22.4 19.456-34.368 28.224-12.032 8.704-24.512 16.768-37.44 24.128-12.864 7.296-26.432 13.632-40.384 18.944-14.336 5.44-28.16 10.944-41.536 16.384-12.416 3.776-25.088 6.528-37.952 8.192l58.944-92.288c3.328-5.376 4.8-11.648 4.096-17.92-0.32-5.952-3.84-11.264-9.216-13.824l-8.192-5.12c-5.376-2.432-11.52-2.432-16.896 0-5.824 1.6-10.816 5.44-13.824 10.752l-94.4 138.944-5.12 10.24c-3.264 4.992-4.352 11.136-3.072 16.96 1.408 5.952 5.376 11.008 10.816 13.824l10.24 5.12 148.672 78.976c3.904 0.64 7.872 0.64 11.776 0 3.968-0.064 7.808-1.152 11.264-3.072 3.584-1.856 6.592-4.736 8.704-8.192l3.072-8.192c2.304-5.376 2.304-11.52 0-16.896-2.048-5.952-6.208-10.88-11.776-13.824l-80-40c8.896-1.536 17.664-3.584 26.24-6.208 59.2-14.976 114.368-42.816 161.536-81.536 47.616-38.784 86.72-86.976 114.88-141.504v0l5.12-10.24h0.448z" />
<glyph unicode="&#xe905;" glyph-name="ico_heart" d="M288.32 908.736c65.856 0 140.48-41.28 223.744-123.904 33.536 34.432 71.424 64.384 112.64 89.088 33.344 21.568 71.936 33.6 111.616 34.816 37.248 0.448 74.24-6.912 108.544-21.504 34.88-15.872 66.496-38.080 93.184-65.536 56.64-55.296 87.744-131.712 85.952-210.88 2.304-80.192-28.864-157.696-86.016-214.016-2.752-2.048-122.176-130.752-358.4-386.048-18.432-16.64-42.752-25.152-67.584-23.552-25.152-0.512-49.408 9.728-66.56 28.16l-116.672 125.44-102.4 111.104-91.136 102.4-51.2 51.2c-27.072 28.928-48 63.040-61.44 100.352-29.952 71.936-29.952 152.832 0 224.768 14.848 37.248 37.12 71.040 65.536 99.328 25.728 26.304 56.832 46.72 91.136 59.904 34.88 12.8 71.808 19.264 109.056 18.88zM204.864 830.4c-26.304-10.176-50.176-25.664-70.144-45.568-45.696-43.392-71.296-103.872-70.656-166.848 0-7.488 0-15.168 0-23.040 0.64-7.744 1.856-15.424 3.584-23.040 0-7.488 1.856-14.848 5.632-22.016 2.048-7.36 4.608-14.528 7.68-21.504 3.072-7.168 6.464-14.016 10.24-20.48 3.392-6.72 7.168-13.184 11.264-19.456l13.824-18.944c4.736-6.144 9.856-11.904 15.36-17.408 23.232-23.232 142.656-154.816 358.4-394.752 5.696-5.312 13.184-8.192 20.992-8.192h10.24c4.096 1.216 7.872 3.52 10.752 6.656 235.84 255.296 355.328 384.32 358.4 387.072 44.928 43.84 69.888 104.128 69.12 166.912 0.832 62.464-24.192 122.496-69.12 165.888-40.768 43.456-97.6 68.096-157.184 68.096-8.256-0.128-16.512-1.152-24.576-3.072-9.6-2.304-18.88-5.504-27.712-9.792-9.216-4.416-19.136-9.536-29.696-15.36-10.944-6.336-21.568-13.376-31.744-20.992-10.56-7.808-21.312-16.512-32.256-26.112-11.136-9.408-21.696-19.52-31.744-30.208l-43.52-44.544-46.080 45.056c-69.952 70.656-129.152 105.984-177.6 105.984-28.48 0.32-56.768-4.544-83.456-14.336z" />
<glyph unicode="&#xe906;" glyph-name="ico_search" d="M424.709 959.931c-233.6 0-424.704-190.656-424.704-424.32s191.104-424.704 424.704-424.704c89.792 0 172.992 28.736 241.536 76.544l229.632-229.184c29.184-29.632 76.992-29.632 106.176 0 29.184 29.184 29.184 76.544 0 105.728l-229.568 229.632c48.192 69.056 76.544 152.192 76.544 242.048 0 233.6-191.168 424.256-424.32 424.256zM424.773 845.115c171.392 0 308.928-137.536 308.928-309.44s-137.536-309.44-308.928-309.44c-171.904 0-309.44 137.536-309.44 309.44s137.536 309.44 309.44 309.44z" />
<glyph unicode="&#xe907;" glyph-name="ico_user" d="M943.488 100.416c-21.76 0-39.36 17.6-39.36 39.36 0 136.896-175.936 248.32-392.128 248.32s-392.128-111.36-392.128-248.32c0-21.76-17.6-39.36-39.36-39.36s-39.36 17.6-39.36 39.36c0 180.352 211.2 327.104 470.912 327.104s470.912-146.752 470.912-327.104c-0.064-21.76-17.664-39.36-39.488-39.36zM532.544 388.096c-157.696 0-285.952 128.256-285.952 285.952s128.256 285.952 285.952 285.952 285.952-128.256 285.952-285.952-128.256-285.952-285.952-285.952zM532.544 881.216c-114.24 0-207.168-92.992-207.168-207.168s92.992-207.168 207.168-207.168 207.168 92.992 207.168 207.168-92.928 207.168-207.168 207.168zM926.72-64h-818.688c-36.096 0-66.944 37.888-66.944 68.864v134.912c0 21.76 17.6 39.36 39.36 39.36s39.36-17.6 39.36-39.36v-124.992h783.872l0.384 124.992c0 21.76 17.6 39.36 39.36 39.36s39.36-17.6 39.36-39.36v-134.912c0.128-39.872-23.488-68.864-56.064-68.864z" />
<glyph unicode="&#xe908;" glyph-name="ico_arrow-left" d="M384.512 448l390.080 403.52c12.032 12.416 17.984 28.416 17.984 44.416 0 16.768-6.528 33.472-19.52 46.080-12.48 11.968-28.544 17.984-44.544 17.984-16.768 0-33.408-6.528-46.016-19.52l-433.088-448c-3.2-3.392-4.864-7.488-7.232-11.328-1.92-3.008-4.48-5.632-5.76-8.896-1.984-4.8-2.432-9.92-3.2-14.976-0.448-2.944-1.664-5.76-1.664-8.704 0-0.192-0.128-0.384-0.128-0.576 0-3.328 1.408-6.464 1.92-9.728 0.768-4.736 1.024-9.472 2.816-14.016 1.344-3.392 4.032-6.208 6.016-9.408 2.368-3.84 4.032-8 7.296-11.392l433.088-448c24.512-25.408 64.96-25.984 90.496-1.472 25.344 24.576 26.048 65.088 1.472 90.496l-390.016 403.52z" />
<glyph unicode="&#xe909;" glyph-name="check_circle" d="M426 212.667l384 384-60 62-324-324-152 152-60-60zM512 852.667c236 0 426-190 426-426s-190-426-426-426-426 190-426 426 190 426 426 426z" />
<glyph unicode="&#xe90a;" glyph-name="cancel" d="M726 272.667l-154 154 154 154-60 60-154-154-154 154-60-60 154-154-154-154 60-60 154 154 154-154zM512 852.667c236 0 426-190 426-426s-190-426-426-426-426 190-426 426 190 426 426 426z" />
<glyph unicode="&#xe90b;" glyph-name="info" d="M448 656c0 26.4 21.6 48 48 48h32c26.4 0 48-21.6 48-48v-32c0-26.4-21.6-48-48-48h-32c-26.4 0-48 21.6-48 48v32zM640 192h-256v64h64v192h-64v64h192v-256h64zM512 960c-282.77 0-512-229.23-512-512s229.23-512 512-512 512 229.23 512 512-229.23 512-512 512zM512 32c-229.75 0-416 186.25-416 416s186.25 416 416 416 416-186.25 416-416-186.25-416-416-416z" />
<glyph unicode="&#xe90c;" glyph-name="ico_scan-barcode" d="M170.688 149.312c-23.616 0-42.688 19.136-42.688 42.688v512c0 23.552 19.072 42.688 42.688 42.688s42.624-19.136 42.624-42.688v-512c0-23.552-19.072-42.688-42.624-42.688zM853.312 149.312c-23.552 0-42.688 19.072-42.688 42.688v512c0 23.552 19.072 42.688 42.688 42.688s42.688-19.136 42.688-42.688v-512c0-23.552-19.072-42.688-42.688-42.688zM682.688 234.688c-23.616 0-42.688 19.072-42.688 42.624v426.688c0 23.552 19.072 42.688 42.688 42.688 23.552 0 42.688-19.072 42.688-42.688v-426.688c-0.064-23.552-19.136-42.624-42.688-42.624zM341.312 234.688c-23.552 0-42.688 19.072-42.688 42.688v426.624c0 23.552 19.072 42.688 42.688 42.688s42.688-19.136 42.688-42.688v-426.688c0-23.552-19.072-42.624-42.688-42.624zM512 320c-23.552 0-42.688 19.072-42.688 42.688v341.312c0 23.552 19.072 42.688 42.688 42.688s42.688-19.136 42.688-42.688v-341.312c0-23.616-19.136-42.688-42.688-42.688zM42.688 704c-23.616 0-42.688 19.072-42.688 42.688v170.688c0 23.552 19.072 42.624 42.688 42.624h170.688c23.552 0 42.624-19.072 42.624-42.688s-19.072-42.624-42.688-42.624h-128v-128c0-23.616-19.072-42.688-42.624-42.688zM981.312 704c-23.552 0-42.688 19.072-42.688 42.688v128h-128c-23.552 0-42.624 19.072-42.624 42.624s19.072 42.688 42.688 42.688h170.688c23.552 0 42.624-19.072 42.624-42.688v-170.688c0-23.552-19.072-42.624-42.688-42.624zM981.312-64h-170.688c-23.552 0-42.624 19.072-42.624 42.688 0 23.552 19.072 42.688 42.688 42.688h128v128c0 23.552 19.072 42.688 42.688 42.688 23.552-0.064 42.624-19.136 42.624-42.752v-170.688c0-23.552-19.072-42.624-42.688-42.624zM213.312-64h-170.688c-23.552 0-42.624 19.072-42.624 42.688v170.688c0 23.552 19.072 42.624 42.688 42.624s42.688-19.072 42.688-42.688v-128h128c23.552 0 42.624-19.072 42.624-42.624 0-23.616-19.072-42.688-42.688-42.688zM981.312 448h-938.624c-23.616 0-42.688 19.072-42.688 42.688s19.072 42.688 42.688 42.688h938.688c23.552-0.064 42.624-19.136 42.624-42.688s-19.072-42.688-42.688-42.688z" />
<glyph unicode="&#xe90d;" glyph-name="ico_album" d="M960.064 740.928h-641.216c-34.688-0.576-62.528-28.928-62.4-63.616v-641.216c0.128-34.816 28.352-63.040 63.168-63.168h641.216c34.816 0.128 63.040 28.352 63.168 63.168v641.216c0.128 35.008-28.16 63.488-63.168 63.616-0.256 0-0.512 0-0.768 0zM958.272 524.928v-262.080c-0.064-28.928-23.488-52.416-52.48-52.48h-532.416c-29.056-0.128-52.672 23.296-52.8 52.352 0 0.064 0 0.064 0 0.128v361.024c0.064 28.928 23.488 52.416 52.48 52.48h532.736c28.928-0.128 52.288-23.552 52.352-52.48l0.128-98.944zM229.952 183.68v98.24l-14.208-3.072c-28.288-6.016-56.128 11.84-62.4 40.064l-22.144 101.696-3.52 16.32-25.472 115.776-4.672 21.376-21.376 96.192c-6.016 28.288 11.84 56.128 40.064 62.4l520.448 113.92c28.288 6.016 56.128-11.84 62.4-40.064l9.6-43.904h66.56l-24.128 110.848c-7.488 33.856-40.832 55.36-74.816 48.32l-626.624-136.512c-33.856-7.552-55.424-40.896-48.32-74.816l25.344-116.288 5.312-26.304 74.816-342.016 4.288-19.776 26.688-122.368c7.488-33.856 40.832-55.36 74.816-48.32l19.648 4.288c-1.856 6.016-2.816 12.288-2.752 18.624v125.376h0.448z" />
<glyph unicode="&#xe90e;" glyph-name="ico_cart" d="M388.544 271.872c-73.856 0-133.12-60.544-133.12-133.12s60.544-133.12 133.12-133.12c73.856 0 133.12 60.544 133.12 133.12s-59.264 133.12-133.12 133.12zM424.832 137.536c0-20.608-15.744-36.288-36.288-36.288s-36.288 15.744-36.288 36.288 15.744 36.288 36.288 36.288 36.288-15.744 36.288-36.288zM771.008 271.872c-73.856 0-133.12-60.544-133.12-133.12s60.544-133.12 133.12-133.12 133.12 60.544 133.12 133.12-59.264 133.12-133.12 133.12zM771.008 101.248c-20.608 0-36.288 15.744-36.288 36.288s15.744 36.288 36.288 36.288 36.288-15.744 36.288-36.288-15.68-36.288-36.288-36.288zM245.696 763.328l-14.528 59.264c-9.664 40-45.952 67.84-88.32 67.84h-94.4c-26.688 0-48.448-21.824-48.448-48.448s21.76-48.384 48.448-48.384h89.6l110.144-441.792c9.664-39.936 46.016-67.776 88.384-67.776h487.808c41.152 0 76.224 26.624 87.168 66.56l112.448 412.736h-778.304zM896.896 666.496l-77.44-285.632h-478.080l-71.488 285.632h627.008z" />
<glyph unicode="&#xe90f;" glyph-name="ico_phone" d="M1023.936 151.488c-0.576-17.344-3.072-34.56-7.36-51.328-3.584-17.024-8.704-33.728-15.36-49.856-10.24-24.256-39.744-49.984-88.64-77.12-41.28-23.68-87.808-36.544-135.36-37.376-12.864 0-25.728 0.832-38.528 2.496-14.144 2.048-28.16 5.056-41.856 9.088-15.296 4.416-26.688 7.936-34.176 10.624s-20.928 7.616-40.256 14.976c-19.456 7.296-31.296 11.648-35.648 13.056-44.48 15.552-87.104 35.776-127.232 60.48-69.76 44.928-134.144 97.6-191.936 157.056-59.456 57.792-112.128 122.24-157.056 191.936-24.768 40.128-45.12 82.944-60.672 127.552-1.216 4.416-5.376 16.256-12.48 35.648-7.040 19.392-12.16 32.704-15.232 40-2.624 7.488-6.144 18.88-10.56 34.176-4.032 13.824-7.104 27.968-9.088 42.24-1.664 12.736-2.496 25.6-2.496 38.528 0.832 47.488 13.696 94.016 37.376 135.232 26.944 49.28 52.544 78.848 76.8 88.768 16.128 6.592 32.832 11.712 49.856 15.36 16.768 4.224 33.92 6.656 51.2 7.232 5.184 0.256 10.368-0.448 15.36-2.112 8.32-2.88 21.12-21.376 38.528-55.36 5.376-9.216 12.48-22.336 21.824-39.232 9.344-16.96 17.728-32.384 24.896-46.272 7.232-13.824 15.36-26.816 22.528-38.912l12.48-18.176c5.824-8.192 11.008-16.832 15.552-25.792 3.264-6.4 4.992-13.504 5.12-20.672-2.304-14.272-9.664-27.2-20.672-36.48-13.824-14.592-28.928-27.968-45.12-40-15.488-11.84-30.208-24.704-43.968-38.528-13.824-13.568-20.736-24.896-20.736-33.408 0.128-5.632 1.216-11.2 3.264-16.448 1.792-5.12 3.904-10.112 6.208-14.976 1.728-3.392 5.12-9.216 10.24-17.472s7.872-12.48 8.32-13.824c33.984-62.528 76.544-120 126.528-170.752 50.752-49.984 108.288-92.544 170.88-126.528l13.824-8.32c8.256-5.12 14.080-8.448 17.472-10.24 4.864-2.368 9.856-4.416 14.976-6.208 5.184-2.112 10.688-3.328 16.32-3.584 8.704 0 19.968 6.976 33.408 20.672 13.824 14.144 26.752 29.248 38.528 45.12 12.032 16.128 25.408 31.232 40 45.12 9.28 11.008 22.080 18.304 36.288 20.672 7.232-0.128 14.336-1.856 20.8-5.12 8.96-4.544 17.6-9.792 25.792-15.552l18.176-12.48c12.48-7.232 24.896-14.848 38.912-22.528 13.952-7.744 29.184-16.32 46.272-24.896s30.016-16.448 39.232-21.824c33.92-16.64 52.288-29.44 55.232-38.528 1.792-5.184 2.56-10.624 2.24-16.128z" />
<glyph unicode="&#xe910;" glyph-name="calendar" d="M938.688 864h-138.688v64c0 17.696-14.304 32-32 32s-32-14.304-32-32v-64h-192v64c0 17.696-14.336 32-32 32s-32-14.304-32-32v-64h-192v64c0 17.696-14.336 32-32 32s-32-14.304-32-32v-64h-138.656c-47.136 0-85.344-38.176-85.344-85.312v-757.344c0-47.136 38.208-85.344 85.344-85.344h853.344c47.136 0 85.312 38.208 85.312 85.344v757.344c0 47.136-38.176 85.312-85.312 85.312zM960 21.344c0-11.776-9.568-21.344-21.312-21.344h-853.344c-11.776 0-21.344 9.568-21.344 21.344v757.344c0 11.744 9.568 21.312 21.344 21.312h138.656v-64c0-17.696 14.336-32 32-32s32 14.304 32 32v64h192v-64c0-17.696 14.336-32 32-32s32 14.304 32 32v64h192v-64c0-17.696 14.304-32 32-32s32 14.304 32 32v64h138.688c11.744 0 21.312-9.568 21.312-21.312v-757.344zM224 576h128v-96h-128zM224 416h128v-96h-128zM224 256h128v-96h-128zM448 256h128v-96h-128zM448 416h128v-96h-128zM448 576h128v-96h-128zM672 256h128v-96h-128zM672 416h128v-96h-128zM672 576h128v-96h-128z" />
<glyph unicode="&#xe911;" glyph-name="plus" d="M992 576h-352v352c0 17.672-14.328 32-32 32h-192c-17.672 0-32-14.328-32-32v-352h-352c-17.672 0-32-14.328-32-32v-192c0-17.672 14.328-32 32-32h352v-352c0-17.672 14.328-32 32-32h192c17.672 0 32 14.328 32 32v352h352c17.672 0 32 14.328 32 32v192c0 17.672-14.328 32-32 32z" />
<glyph unicode="&#xe912;" glyph-name="twitter" d="M1024 733.6c-37.6-16.8-78.2-28-120.6-33 43.4 26 76.6 67.2 92.4 116.2-40.6-24-85.6-41.6-133.4-51-38.4 40.8-93 66.2-153.4 66.2-116 0-210-94-210-210 0-16.4 1.8-32.4 5.4-47.8-174.6 8.8-329.4 92.4-433 219.6-18-31-28.4-67.2-28.4-105.6 0-72.8 37-137.2 93.4-174.8-34.4 1-66.8 10.6-95.2 26.2 0-0.8 0-1.8 0-2.6 0-101.8 72.4-186.8 168.6-206-17.6-4.8-36.2-7.4-55.4-7.4-13.6 0-26.6 1.4-39.6 3.8 26.8-83.4 104.4-144.2 196.2-146-72-56.4-162.4-90-261-90-17 0-33.6 1-50.2 3 93.2-59.8 203.6-94.4 322.2-94.4 386.4 0 597.8 320.2 597.8 597.8 0 9.2-0.2 18.2-0.6 27.2 41 29.4 76.6 66.4 104.8 108.6z" />
<glyph unicode="&#xe913;" glyph-name="google-plus" d="M325.8 502.6v-111.8h184.8c-7.4-48-55.8-140.6-184.8-140.6-111.2 0-202 92.2-202 205.8s90.8 205.8 202 205.8c63.4 0 105.6-27 129.8-50.2l88.4 85.2c-56.8 53-130.4 85.2-218.2 85.2-180.2-0.2-325.8-145.8-325.8-326s145.6-325.8 325.8-325.8c188 0 312.8 132.2 312.8 318.4 0 21.4-2.4 37.8-5.2 54h-307.6zM1024 512h-96v96h-96v-96h-96v-96h96v-96h96v96h96z" />
<glyph unicode="&#xe914;" glyph-name="facebook" d="M608 768h160v192h-160c-123.514 0-224-100.486-224-224v-96h-128v-192h128v-512h192v512h160l32 192h-192v96c0 17.346 14.654 32 32 32z" />
<glyph unicode="&#xe915;" glyph-name="folder-open" d="M832 0l192 512h-832l-192-512zM128 576l-128-576v832h288l128-128h416v-128z" />
<glyph unicode="&#xe916;" glyph-name="sub-arrow" d="M810 298.667l-256-256-60 60 154 154h-478v512h86v-428h392l-154 154 60 60z" />
<glyph unicode="&#xe917;" glyph-name="ico_marker" d="M512 960c-176.704 0-320-143.232-320-320 0-49.472 11.264-96.448 31.36-138.24 1.088-2.368 288.64-565.76 288.64-565.76l285.184 558.72c22.272 43.584 34.816 92.992 34.816 145.28 0 176.768-143.232 320-320 320zM512 448c-106.048 0-192 86.016-192 192s85.952 192 192 192c105.984 0 192-86.016 192-192s-86.016-192-192-192z" />
<glyph unicode="&#xe918;" glyph-name="document-file-pdf" d="M672 128v-64.082c0-35.408-28.617-63.918-63.918-63.918h-480.165c-35.408 0-63.918 28.759-63.918 64.235v735.531c0 35.488 28.776 64.235 64.273 64.235h319.727v-192.061c0-35.565 28.739-63.939 64.189-63.939h159.811v-64h-287.781c-53.14 0-96.219-42.952-96.219-95.961v-224.078c0-52.998 42.752-95.961 96.219-95.961h287.781zM480 864v-191.906c0-17.725 14.431-32.094 31.705-32.094h160.295l-192 224zM383.826 512h544.348c34.951 0 63.826-28.539 63.826-63.745v-224.511c0-34.939-28.576-63.745-63.826-63.745h-544.348c-34.951 0-63.826 28.539-63.826 63.745v224.511c0 34.939 28.576 63.745 63.826 63.745zM800 352v64h128v32h-160v-224h32v96h96v32h-96zM384 384v-160h32v96h63.844c35.432 0 64.156 28.407 64.156 64 0 35.346-28.605 64-64.156 64h-95.844v-64zM416 416v-64h64.033c17.655 0 31.967 14.204 31.967 32 0 17.673-14.165 32-31.967 32h-64.033zM576 448v-224h95.844c35.432 0 64.156 28.37 64.156 64.189v95.621c0 35.451-28.605 64.189-64.156 64.189h-95.844zM608 416v-160h64.033c17.655 0 31.967 14.199 31.967 31.994v96.012c0 17.67-14.165 31.994-31.967 31.994h-64.033z" />
</font>
</defs>
</svg>
